<svg width="16" height="31" fill="none" xmlns="http://www.w3.org/2000/svg"><path d="M10.016 1.94l.184.031h2.542v2.911H10.2c-.143 0-.281.01-.414.03a.856.856 0 00-.321.106 1.897 1.897 0 00-.414.35.945.945 0 00-.184.379l-.03.15-.016.107v4.67h4.962l-.704 2.91H8.821V28.14h-2.94V13.585H1.96v-2.911h3.92V6.156c0-.627.082-1.188.245-1.683.163-.496.383-.885.659-1.168.275-.283.556-.525.842-.728.286-.202.602-.343.95-.424.347-.08.622-.137.826-.167.205-.03.409-.045.613-.045zm0-1.94c-1.266 0-2.4.303-3.4.91C4.82 1.98 3.921 3.73 3.921 6.156v2.577H1.96c-.532 0-.991.192-1.379.576A1.856 1.856 0 000 10.674v2.91c0 .526.194.981.582 1.365.388.384.847.576 1.378.576h1.96V28.11c0 .546.19 1.006.567 1.38.378.374.843.561 1.394.561h2.94c.531 0 .99-.187 1.379-.561.388-.374.582-.834.582-1.38V15.525h2.297c.45 0 .847-.131 1.194-.394.348-.263.582-.596.705-1l.674-2.912c.184-.626.082-1.197-.306-1.713-.388-.515-.91-.773-1.563-.773h-3.001v-1.91h1.96c.53 0 .99-.192 1.378-.576.388-.385.582-.84.582-1.365V1.971c0-.546-.188-1.006-.566-1.38a1.868 1.868 0 00-1.363-.56H10.26A1.016 1.016 0 0010.016 0z" fill="#fff"/></svg>