<svg width="30" height="31" fill="none" xmlns="http://www.w3.org/2000/svg"><path d="M14.988 7.283a7.703 7.703 0 100 15.407 7.703 7.703 0 000-15.407zm0 12.706a5.005 5.005 0 110-10.009 5.005 5.005 0 010 10.01zm8.009-11.193a1.796 1.796 0 100-3.592 1.796 1.796 0 000 3.592z" fill="#fff"/><path d="M29.205 5.174A7.673 7.673 0 0024.82.79a11.005 11.005 0 00-3.642-.7C19.573.02 19.065 0 14.997 0c-4.069 0-4.59 0-6.18.09a10.89 10.89 0 00-3.64.7A7.663 7.663 0 00.792 5.174a10.97 10.97 0 00-.698 3.642C.022 10.42 0 10.926 0 14.996c0 4.069 0 4.587.093 6.181.025 1.246.26 2.476.698 3.644a7.678 7.678 0 004.388 4.384c1.162.456 2.393.709 3.64.75 1.605.07 2.113.092 6.181.092s4.59 0 6.18-.092a11.02 11.02 0 003.642-.698 7.685 7.685 0 004.387-4.386 10.97 10.97 0 00.698-3.642c.071-1.603.093-2.11.093-6.18s0-4.587-.093-6.181a10.966 10.966 0 00-.702-3.694zm-2.029 15.88a8.403 8.403 0 01-.518 2.812 4.976 4.976 0 01-2.852 2.85 8.31 8.31 0 01-2.782.519c-1.583.073-2.03.091-6.087.091-4.062 0-4.477 0-6.09-.091a8.265 8.265 0 01-2.78-.518 4.974 4.974 0 01-2.863-2.85 8.463 8.463 0 01-.519-2.781c-.071-1.583-.088-2.03-.088-6.088 0-4.06 0-4.474.088-6.089.011-.96.186-1.91.519-2.81a4.975 4.975 0 012.863-2.852 8.327 8.327 0 012.78-.518c1.585-.072 2.03-.092 6.09-.092 4.06 0 4.476 0 6.087.092a8.24 8.24 0 012.782.518 4.983 4.983 0 012.852 2.852c.328.891.503 1.831.518 2.78.072 1.585.09 2.03.09 6.09 0 4.057 0 4.494-.071 6.087h-.019v-.002z" fill="#fff"/></svg>