<svg width="16" height="31" viewBox="0 0 16 31" fill="none" xmlns="http://www.w3.org/2000/svg">
<path d="M10.016 1.94067L10.1997 1.97099H12.742V4.88199H10.1997C10.0568 4.88199 9.91898 4.8921 9.78625 4.91231C9.65352 4.93253 9.54631 4.9679 9.46463 5.01844C9.38295 5.06898 9.30638 5.12457 9.23491 5.18522C9.16344 5.24586 9.10218 5.30651 9.05113 5.36715C9.00008 5.4278 8.95924 5.4935 8.92861 5.56425C8.89798 5.63501 8.87756 5.69565 8.86735 5.74619L8.83672 5.89781L8.82141 6.00394V10.6737H13.7834L13.079 13.5847H8.82141V28.1397H5.88094V13.5847H1.96031V10.6737H5.88094V6.15555C5.88094 5.52888 5.96262 4.9679 6.12598 4.47263C6.28934 3.97735 6.50885 3.58821 6.78452 3.3052C7.06019 3.02218 7.34096 2.7796 7.62684 2.57745C7.91272 2.37529 8.22923 2.23379 8.57637 2.15293C8.9235 2.07207 9.19917 2.01647 9.40337 1.98615C9.60757 1.95583 9.81177 1.94067 10.016 1.94067ZM10.016 0C8.74994 0 7.61663 0.303229 6.61605 0.909687C4.8191 1.9811 3.92062 3.72972 3.92062 6.15555V8.733H1.96031C1.42939 8.733 0.969946 8.92504 0.581968 9.30913C0.193989 9.69322 0 10.1481 0 10.6737V13.5847C0 14.1103 0.193989 14.5651 0.581968 14.9492C0.969946 15.3333 1.42939 15.5253 1.96031 15.5253H3.92062V28.1093C3.92062 28.6551 4.10951 29.115 4.48728 29.489C4.86505 29.863 5.3296 30.05 5.88094 30.05H8.82141C9.35232 30.05 9.81177 29.863 10.1997 29.489C10.5877 29.115 10.7817 28.6551 10.7817 28.1093V15.5253H13.079C13.5282 15.5253 13.9264 15.3939 14.2735 15.1311C14.6207 14.8683 14.8555 14.5348 14.978 14.1305L15.6519 11.2195C15.8356 10.5928 15.7335 10.0217 15.3456 9.50623C14.9576 8.99074 14.4369 8.733 13.7834 8.733H10.7817V6.82265H12.742C13.2729 6.82265 13.7324 6.63061 14.1204 6.24652C14.5084 5.86243 14.7023 5.40758 14.7023 4.88199V1.97099C14.7023 1.42518 14.5135 0.965279 14.1357 0.591297C13.7579 0.217314 13.3036 0.0303229 12.7727 0.0303229H10.261C10.1793 0.0101076 10.0977 0 10.016 0Z" fill="white"/>
</svg>
