<svg width="30" height="31" viewBox="0 0 30 31" fill="none" xmlns="http://www.w3.org/2000/svg">
<path d="M14.9884 7.28345C12.9454 7.28345 10.986 8.09504 9.54138 9.53968C8.09675 10.9843 7.28516 12.9437 7.28516 14.9867C7.28516 17.0297 8.09675 18.9891 9.54138 20.4337C10.986 21.8783 12.9454 22.6899 14.9884 22.6899C17.0314 22.6899 18.9908 21.8783 20.4354 20.4337C21.8801 18.9891 22.6916 17.0297 22.6916 14.9867C22.6916 12.9437 21.8801 10.9843 20.4354 9.53968C18.9908 8.09504 17.0314 7.28345 14.9884 7.28345ZM14.9884 19.9895C13.6611 19.9895 12.3882 19.4622 11.4497 18.5237C10.5112 17.5852 9.98396 16.3123 9.98396 14.985C9.98396 13.6578 10.5112 12.3849 11.4497 11.4464C12.3882 10.5078 13.6611 9.98058 14.9884 9.98058C16.3157 9.98058 17.5886 10.5078 18.5271 11.4464C19.4656 12.3849 19.9928 13.6578 19.9928 14.985C19.9928 16.3123 19.4656 17.5852 18.5271 18.5237C17.5886 19.4622 16.3157 19.9895 14.9884 19.9895Z" fill="white"/>
<path d="M22.9966 8.79613C23.9884 8.79613 24.7924 7.99209 24.7924 7.00026C24.7924 6.00843 23.9884 5.20439 22.9966 5.20439C22.0047 5.20439 21.2007 6.00843 21.2007 7.00026C21.2007 7.99209 22.0047 8.79613 22.9966 8.79613Z" fill="white"/>
<path d="M29.2054 5.17437C28.8197 4.17844 28.2303 3.27402 27.475 2.51898C26.7197 1.76394 25.815 1.17493 24.819 0.789649C23.6534 0.352105 22.422 0.115517 21.1773 0.0899599C19.573 0.019991 19.0649 0 14.9967 0C10.9285 0 10.407 -1.63913e-07 8.81608 0.0899599C7.57228 0.11421 6.34178 0.350847 5.1777 0.789649C4.18137 1.17448 3.27648 1.76333 2.5211 2.51843C1.76572 3.27352 1.17652 4.17818 0.791315 5.17437C0.353684 6.33987 0.117639 7.57136 0.0932919 8.81608C0.021657 10.4187 0 10.9268 0 14.9967C0 19.0649 -1.49012e-08 19.583 0.0932919 21.1773C0.118281 22.4234 0.353176 23.6528 0.791315 24.8206C1.17761 25.8165 1.76737 26.7208 2.52294 27.4757C3.2785 28.2307 4.18325 28.8198 5.17937 29.2054C6.34124 29.6605 7.57225 29.914 8.81941 29.955C10.4237 30.025 10.9318 30.0466 15 30.0466C19.0682 30.0466 19.5896 30.0466 21.1806 29.955C22.4252 29.9297 23.6565 29.6937 24.8223 29.257C25.8181 28.8708 26.7225 28.2813 27.4777 27.5261C28.233 26.7708 28.8225 25.8664 29.2087 24.8706C29.6468 23.7045 29.8817 22.475 29.9067 21.2289C29.9783 19.6263 30 19.1182 30 15.0483C30 10.9785 30 10.462 29.9067 8.86773C29.8873 7.60541 29.65 6.35592 29.2054 5.17437ZM27.1763 21.054C27.1655 22.0141 26.9903 22.9652 26.6582 23.8661C26.408 24.5139 26.025 25.1022 25.5338 25.5931C25.0426 26.084 24.4541 26.4667 23.8061 26.7165C22.9152 27.0471 21.9742 27.2223 21.024 27.2346C19.4414 27.3079 18.9949 27.3262 14.9367 27.3262C10.8752 27.3262 10.4604 27.3262 8.84773 27.2346C7.89804 27.2229 6.95745 27.0477 6.0673 26.7165C5.41707 26.4682 4.82619 26.0862 4.33289 25.5952C3.83959 25.1042 3.45486 24.5151 3.20358 23.8661C2.87613 22.9749 2.70099 22.0349 2.68547 21.0856C2.61384 19.503 2.59718 19.0565 2.59718 14.9983C2.59718 10.9385 2.59718 10.5237 2.68547 8.90937C2.69624 7.94984 2.87148 6.99926 3.20358 6.09896C3.71168 4.78454 4.75289 3.75 6.0673 3.24689C6.95789 2.91727 7.8982 2.74205 8.84773 2.72879C10.432 2.65715 10.8768 2.63716 14.9367 2.63716C18.9966 2.63716 19.413 2.63716 21.024 2.72879C21.9742 2.74022 22.9154 2.91549 23.8061 3.24689C24.454 3.49723 25.0424 3.88028 25.5336 4.37144C26.0248 4.8626 26.4078 5.45103 26.6582 6.09896C26.9856 6.99014 27.1607 7.93008 27.1763 8.87939C27.2479 10.4637 27.2662 10.9085 27.2662 14.9683C27.2662 19.0265 27.2662 19.463 27.1946 21.0556H27.1763V21.054Z" fill="white"/>
</svg>
