<svg width="24" height="16" viewBox="0 0 24 16" fill="none" xmlns="http://www.w3.org/2000/svg">
<path d="M23.7029 2.01331L21.9849 0.295307C21.6029 -0.0866929 20.9359 -0.0886929 20.5529 0.295307L11.2859 9.56431L7.57493 5.85331C7.17993 5.45831 6.53793 5.45831 6.14293 5.85331L4.42493 7.57131C4.23393 7.76231 4.12793 8.01631 4.12793 8.28731C4.12793 8.55831 4.23293 8.81231 4.42493 9.00431L10.4679 15.0473C10.6869 15.2663 10.9769 15.3863 11.2859 15.3863C11.5949 15.3863 11.8859 15.2663 12.1039 15.0473L23.7039 3.44631C24.0989 3.05131 24.0979 2.40931 23.7029 2.01331ZM11.3959 14.3393C11.3439 14.3923 11.2269 14.3923 11.1739 14.3393L5.13093 8.27731L6.86693 6.55931L10.9319 10.6233C11.1199 10.8113 11.4519 10.8113 11.6389 10.6233L21.2779 1.00131L22.9959 2.71931V2.73831L11.3959 14.3393Z" fill="black"/>
<path d="M6.339 15.0462C6.558 15.2652 6.848 15.3852 7.157 15.3852C7.466 15.3852 7.757 15.2652 7.975 15.0462C8.17 14.8512 8.17 14.5342 7.975 14.3392C7.78 14.1442 7.463 14.1442 7.268 14.3392C7.216 14.3922 7.099 14.3922 7.046 14.3392L1.003 8.27716L2.721 6.55916C2.726 6.55416 2.735 6.55416 2.739 6.55916C2.934 6.75416 3.251 6.75416 3.446 6.55916C3.641 6.36416 3.641 6.04716 3.446 5.85216C3.052 5.45716 2.409 5.45716 2.014 5.85216L0.297 7.57016C0.105 7.76116 0 8.01616 0 8.28716C0 8.55816 0.105 8.81316 0.297 9.00416L6.339 15.0462Z" fill="black"/>
<path d="M10.652 7.48425L17.131 1.00325C17.136 0.99925 17.144 0.99625 17.15 1.00325C17.345 1.19825 17.662 1.19825 17.857 1.00325C18.052 0.80825 18.052 0.49125 17.857 0.29625C17.462 -0.09875 16.82 -0.09875 16.425 0.29625L9.94496 6.77725C9.74996 6.97225 9.74996 7.28925 9.94496 7.48425C10.043 7.58225 10.171 7.63025 10.299 7.63025C10.427 7.63025 10.554 7.58225 10.652 7.48425Z" fill="black"/>
</svg>
