<svg width="25" height="25" viewBox="0 0 25 25" fill="none" xmlns="http://www.w3.org/2000/svg">
<path d="M12.471 6.06006C10.7711 6.06006 9.14082 6.73533 7.93883 7.93733C6.73683 9.13933 6.06155 10.7696 6.06155 12.4695C6.06155 14.1693 6.73683 15.7996 7.93883 17.0016C9.14082 18.2036 10.7711 18.8789 12.471 18.8789C14.1708 18.8789 15.8011 18.2036 17.0031 17.0016C18.2051 15.7996 18.8804 14.1693 18.8804 12.4695C18.8804 10.7696 18.2051 9.13933 17.0031 7.93733C15.8011 6.73533 14.1708 6.06006 12.471 6.06006ZM12.471 16.632C11.3666 16.632 10.3075 16.1933 9.52664 15.4124C8.74576 14.6315 8.30706 13.5724 8.30706 12.4681C8.30706 11.3637 8.74576 10.3046 9.52664 9.52376C10.3075 8.74288 11.3666 8.30418 12.471 8.30418C13.5753 8.30418 14.6344 8.74288 15.4153 9.52376C16.1962 10.3046 16.6349 11.3637 16.6349 12.4681C16.6349 13.5724 16.1962 14.6315 15.4153 15.4124C14.6344 16.1933 13.5753 16.632 12.471 16.632Z" fill="black"/>
<path d="M19.1341 7.31855C19.9593 7.31855 20.6283 6.64955 20.6283 5.82431C20.6283 4.99907 19.9593 4.33008 19.1341 4.33008C18.3088 4.33008 17.6398 4.99907 17.6398 5.82431C17.6398 6.64955 18.3088 7.31855 19.1341 7.31855Z" fill="black"/>
<path d="M24.3 4.30528C23.9791 3.47663 23.4888 2.72411 22.8603 2.09589C22.2318 1.46767 21.4791 0.977588 20.6504 0.657019C19.6806 0.292965 18.656 0.0961149 17.6203 0.0748502C16.2855 0.0166333 15.8627 0 12.4778 0C9.09293 0 8.65907 -1.3942e-07 7.33533 0.0748502C6.30044 0.0950276 5.27661 0.291918 4.30805 0.657019C3.47906 0.977214 2.72617 1.46716 2.09766 2.09543C1.46915 2.7237 0.978915 3.47641 0.658405 4.30528C0.294279 5.27502 0.09788 6.29967 0.0776225 7.33533C0.0180195 8.66877 0 9.09154 0 12.4778C0 15.8627 -1.03274e-08 16.2938 0.0776225 17.6203C0.0984143 18.6571 0.293857 19.6801 0.658405 20.6518C0.979815 21.4803 1.47053 22.2327 2.09918 22.8609C2.72784 23.4891 3.48063 23.9792 4.30944 24.3C5.27616 24.6787 6.30042 24.8896 7.3381 24.9238C8.67293 24.982 9.0957 25 12.4806 25C15.8655 25 16.2993 25 17.6231 24.9238C18.6587 24.9027 19.6832 24.7063 20.6531 24.343C21.4817 24.0217 22.2342 23.5312 22.8626 22.9028C23.491 22.2744 23.9815 21.5219 24.3028 20.6933C24.6673 19.7231 24.8628 18.7001 24.8836 17.6633C24.9432 16.3298 24.9612 15.9071 24.9612 12.5208C24.9612 9.13451 24.9612 8.70481 24.8836 7.3783C24.8674 6.328 24.67 5.28838 24.3 4.30528ZM22.6117 17.5177C22.6028 18.3166 22.457 19.1079 22.1806 19.8575C21.9725 20.3965 21.6538 20.886 21.2451 21.2945C20.8364 21.7029 20.3467 22.0213 19.8076 22.2292C19.0663 22.5042 18.2834 22.65 17.4928 22.6602C16.176 22.7212 15.8045 22.7365 12.4279 22.7365C9.04857 22.7365 8.70343 22.7365 7.36167 22.6602C6.57148 22.6506 5.78887 22.5047 5.04824 22.2292C4.50722 22.0226 4.01558 21.7048 3.60514 21.2962C3.19469 20.8877 2.87458 20.3976 2.6655 19.8575C2.39306 19.116 2.24733 18.3339 2.23442 17.5441C2.17482 16.2273 2.16096 15.8558 2.16096 12.4792C2.16096 9.10124 2.16096 8.7561 2.23442 7.41295C2.24338 6.61458 2.38919 5.82366 2.6655 5.07457C3.08827 3.98093 3.95459 3.12015 5.04824 2.70154C5.78924 2.42728 6.57161 2.2815 7.36167 2.27046C8.67986 2.21086 9.04996 2.19422 12.4279 2.19422C15.8059 2.19422 16.1524 2.19422 17.4928 2.27046C18.2834 2.27997 19.0665 2.4258 19.8076 2.70154C20.3467 2.90984 20.8363 3.22855 21.245 3.63721C21.6536 4.04588 21.9723 4.53547 22.1806 5.07457C22.4531 5.81608 22.5988 6.59814 22.6117 7.388C22.6713 8.7062 22.6866 9.07629 22.6866 12.4543C22.6866 15.8308 22.6866 16.194 22.627 17.5191H22.6117V17.5177Z" fill="black"/>
</svg>
