<svg width="221" height="221" viewBox="0 0 221 221" fill="none" xmlns="http://www.w3.org/2000/svg">
<g filter="url(#filter0_d)">
<path d="M110.438 5C52.2115 5 5 52.2115 5 110.438C5 168.663 52.2115 215.875 110.438 215.875C168.663 215.875 215.875 168.663 215.875 110.438C215.875 52.2115 168.663 5 110.438 5ZM110.438 197.988C62.0963 197.988 22.8867 158.779 22.8867 110.438C22.8867 62.0963 62.0963 22.8867 110.438 22.8867C158.779 22.8867 197.988 62.0963 197.988 110.438C197.988 158.779 158.779 197.988 110.438 197.988Z" fill="#F5DC28"/>
<path d="M159.249 107.402L89.5619 56.8009C89.0029 56.3912 88.3412 56.1448 87.6505 56.089C86.9597 56.0333 86.2671 56.1705 85.6497 56.4852C85.0323 56.8 84.5145 57.2801 84.1539 57.8719C83.7933 58.4637 83.6041 59.144 83.6075 59.837V161.038C83.6075 164.121 87.0907 165.863 89.5619 164.074L159.249 113.474C159.731 113.127 160.122 112.671 160.393 112.143C160.663 111.615 160.804 111.031 160.804 110.438C160.804 109.845 160.663 109.26 160.393 108.732C160.122 108.204 159.731 107.748 159.249 107.402ZM98.6229 138.939V81.9365L137.856 110.438L98.6229 138.939Z" fill="#F5DC28"/>
</g>
<defs>
<filter id="filter0_d" x="0" y="0" width="220.875" height="220.875" filterUnits="userSpaceOnUse" color-interpolation-filters="sRGB">
<feFlood flood-opacity="0" result="BackgroundImageFix"/>
<feColorMatrix in="SourceAlpha" type="matrix" values="0 0 0 0 0 0 0 0 0 0 0 0 0 0 0 0 0 0 127 0" result="hardAlpha"/>
<feOffset/>
<feGaussianBlur stdDeviation="2.5"/>
<feColorMatrix type="matrix" values="0 0 0 0 1 0 0 0 0 1 0 0 0 0 1 0 0 0 1 0"/>
<feBlend mode="normal" in2="BackgroundImageFix" result="effect1_dropShadow"/>
<feBlend mode="normal" in="SourceGraphic" in2="effect1_dropShadow" result="shape"/>
</filter>
</defs>
</svg>
