<svg width="28" height="21" viewBox="0 0 28 21" fill="none" xmlns="http://www.w3.org/2000/svg">
<path d="M1.64481e-05 16.4278C-0.00130339 15.3235 0.377683 14.2525 1.07324 13.3948L10.8956 1.49594C11.2671 1.02933 11.739 0.652505 12.2763 0.393505C12.8135 0.134504 13.4022 -6.38089e-07 13.9987 -6.12019e-07C14.5951 -5.85949e-07 15.1838 0.134504 15.7211 0.393505C16.2583 0.652505 16.7302 1.02933 17.1017 1.49594L26.9241 13.3948C27.498 14.1111 27.8592 14.9743 27.9665 15.8859C28.0737 16.7975 27.9227 17.721 27.5307 18.5509C27.2127 19.2723 26.6938 19.8868 26.036 20.3212C25.3782 20.7556 24.6093 20.9915 23.821 21.0007L4.17628 21.0007C3.38803 20.9915 2.61908 20.7556 1.96127 20.3212C1.30346 19.8868 0.784595 19.2723 0.46664 18.5509C0.163341 17.884 0.00432893 17.1605 1.64481e-05 16.4278ZM13.9987 5.08892L4.66623 16.3345L23.1211 16.3345L13.9987 5.08892Z" fill="black"/>
</svg>
