<svg width="28" height="21" viewBox="0 0 28 21" fill="none" xmlns="http://www.w3.org/2000/svg">
<path d="M28 4.57267C28.0013 5.67696 27.6223 6.74801 26.9268 7.60571L17.1044 19.5045C16.7329 19.9712 16.261 20.348 15.7238 20.607C15.1865 20.866 14.5978 21.0005 14.0014 21.0005C13.4049 21.0005 12.8162 20.866 12.279 20.607C11.7417 20.348 11.2698 19.9712 10.8983 19.5045L1.07595 7.60571C0.501996 6.88937 0.140812 6.02621 0.0335616 5.11458C-0.0736887 4.20295 0.0773079 3.27953 0.469346 2.44954C0.787301 1.72821 1.30617 1.11364 1.96398 0.679237C2.62179 0.244833 3.39074 0.00896072 4.17898 -0.00021553H23.8237C24.612 0.00896072 25.3809 0.244833 26.0387 0.679237C26.6966 1.11364 27.2154 1.72821 27.5334 2.44954C27.8367 3.1165 27.9957 3.84 28 4.57267Z" fill="black"/>
</svg>
