<svg width="24" height="16" fill="none" xmlns="http://www.w3.org/2000/svg"><path d="M23.703 2.013L21.985.295a1.036 1.036 0 00-1.432 0l-9.267 9.27-3.711-3.712a1.013 1.013 0 00-1.432 0L4.425 7.571a1.006 1.006 0 00-.297.716c0 .271.105.525.297.717l6.043 6.043c.219.22.509.34.818.34.309 0 .6-.12.818-.34l11.6-11.6a1.015 1.015 0 00-.001-1.434zM11.396 14.34c-.052.053-.17.053-.222 0L5.13 8.277 6.867 6.56l4.065 4.064c.188.188.52.188.707 0l9.639-9.622 1.718 1.718v.02l-11.6 11.6z" fill="#000"/><path d="M6.339 15.046c.219.22.509.34.818.34.309 0 .6-.12.818-.34a.5.5 0 00-.707-.707c-.052.053-.169.053-.222 0L1.003 8.277 2.721 6.56c.005-.005.014-.005.018 0a.5.5 0 00.707-.707 1.013 1.013 0 00-1.432 0L.297 7.57A1.004 1.004 0 000 8.287c0 .271.105.526.297.717l6.042 6.042zm4.313-7.562l6.479-6.48c.005-.005.013-.008.019 0a.5.5 0 00.707-.708 1.013 1.013 0 00-1.432 0l-6.48 6.481a.5.5 0 00.707.707z" fill="#000"/></svg>