<svg width="25" height="25" fill="none" xmlns="http://www.w3.org/2000/svg"><path d="M12.471 6.06a6.41 6.41 0 100 12.819 6.41 6.41 0 000-12.819zm0 10.572a4.164 4.164 0 110-8.328 4.164 4.164 0 010 8.328zm6.663-9.313a1.494 1.494 0 100-2.989 1.494 1.494 0 000 2.989z" fill="#000"/><path d="M24.3 4.305A6.383 6.383 0 0020.65.657a9.157 9.157 0 00-3.03-.582C16.285.017 15.863 0 12.478 0 9.093 0 8.659 0 7.335.075a9.085 9.085 0 00-3.027.582 6.376 6.376 0 00-3.65 3.648 9.128 9.128 0 00-.58 3.03C.018 8.67 0 9.092 0 12.478c0 3.385 0 3.816.078 5.142.02 1.037.216 2.06.58 3.032A6.39 6.39 0 004.31 24.3c.967.379 1.991.59 3.03.624 1.334.058 1.757.076 5.142.076 3.385 0 3.818 0 5.142-.076a9.17 9.17 0 003.03-.581 6.394 6.394 0 003.65-3.65c.364-.97.56-1.993.58-3.03.06-1.333.078-1.756.078-5.142s0-3.816-.077-5.143a9.124 9.124 0 00-.584-3.073zm-1.688 13.213a6.988 6.988 0 01-.431 2.34 4.14 4.14 0 01-2.373 2.371 6.912 6.912 0 01-2.315.431c-1.317.061-1.688.076-5.065.076-3.38 0-3.725 0-5.066-.076a6.875 6.875 0 01-2.314-.43 4.137 4.137 0 01-2.382-2.372 7.042 7.042 0 01-.432-2.314c-.06-1.317-.073-1.688-.073-5.065 0-3.378 0-3.723.073-5.066.01-.798.155-1.59.432-2.338a4.14 4.14 0 012.382-2.373 6.944 6.944 0 012.314-.432c1.318-.06 1.688-.076 5.066-.076s3.724 0 5.065.076c.79.01 1.574.156 2.315.432a4.146 4.146 0 012.373 2.373 7.04 7.04 0 01.43 2.313c.06 1.318.076 1.688.076 5.066 0 3.377 0 3.74-.06 5.065h-.015v-.001z" fill="#000"/></svg>