<svg width="221" height="221" fill="none" xmlns="http://www.w3.org/2000/svg"><g filter="url(#filter0_d)" fill="#F5DC28"><path d="M110.438 5C52.211 5 5 52.212 5 110.438c0 58.225 47.212 105.437 105.438 105.437 58.225 0 105.437-47.212 105.437-105.437C215.875 52.211 168.663 5 110.438 5zm0 192.988c-48.342 0-87.551-39.209-87.551-87.55 0-48.342 39.21-87.551 87.551-87.551s87.55 39.21 87.55 87.551-39.209 87.55-87.55 87.55z"/><path d="M159.249 107.402L89.562 56.801a3.743 3.743 0 00-5.954 3.036v101.201c0 3.083 3.483 4.825 5.954 3.036l69.687-50.6a3.746 3.746 0 001.144-4.742 3.734 3.734 0 00-1.144-1.33zm-60.626 31.537V81.937l39.233 28.501-39.233 28.501z"/></g><defs><filter id="filter0_d" x="0" y="0" width="220.875" height="220.875" filterUnits="userSpaceOnUse" color-interpolation-filters="sRGB"><feFlood flood-opacity="0" result="BackgroundImageFix"/><feColorMatrix in="SourceAlpha" values="0 0 0 0 0 0 0 0 0 0 0 0 0 0 0 0 0 0 127 0" result="hardAlpha"/><feOffset/><feGaussianBlur stdDeviation="2.5"/><feColorMatrix values="0 0 0 0 1 0 0 0 0 1 0 0 0 0 1 0 0 0 1 0"/><feBlend in2="BackgroundImageFix" result="effect1_dropShadow"/><feBlend in="SourceGraphic" in2="effect1_dropShadow" result="shape"/></filter></defs></svg>