<svg viewBox="0 0 221 221" xmlns="http://www.w3.org/2000/svg" xmlns:xlink="http://www.w3.org/1999/xlink"><style>:root&gt;svg{display:none}:root&gt;svg:target{display:block}</style><svg fill="none" viewBox="0 0 32 28" id="burger" xmlns="http://www.w3.org/2000/svg"><path d="M2 26h28M2 2h28H2zm0 12h28H2z" stroke="#fff" stroke-width="4" stroke-linecap="round" stroke-linejoin="round"/></svg><svg fill="none" viewBox="0 0 28 28" id="burger-close" xmlns="http://www.w3.org/2000/svg"><path d="M17.287 13.998L27.31 3.996A2.341 2.341 0 0024 .686L14 10.71 4 .686a2.34 2.34 0 10-3.31 3.31l10.023 10.002L.69 24a2.331 2.331 0 000 3.31 2.332 2.332 0 003.31 0l10-10.025L24 27.31a2.333 2.333 0 003.31 0 2.331 2.331 0 000-3.31L17.288 13.998z" fill="#fff"/></svg><svg fill="none" viewBox="0 0 24 16" id="check" xmlns="http://www.w3.org/2000/svg"><path d="M23.703 2.013L21.985.295a1.036 1.036 0 00-1.432 0l-9.267 9.27-3.711-3.712a1.013 1.013 0 00-1.432 0L4.425 7.571a1.006 1.006 0 00-.297.716c0 .271.105.525.297.717l6.043 6.043c.219.22.509.34.818.34.309 0 .6-.12.818-.34l11.6-11.6a1.015 1.015 0 00-.001-1.434zM11.396 14.34c-.052.053-.17.053-.222 0L5.13 8.277 6.867 6.56l4.065 4.064c.188.188.52.188.707 0l9.639-9.622 1.718 1.718v.02l-11.6 11.6z" fill="#000"/><path d="M6.339 15.046c.219.22.509.34.818.34.309 0 .6-.12.818-.34a.5.5 0 00-.707-.707c-.052.053-.169.053-.222 0L1.003 8.277 2.721 6.56c.005-.005.014-.005.018 0a.5.5 0 00.707-.707 1.013 1.013 0 00-1.432 0L.297 7.57A1.004 1.004 0 000 8.287c0 .271.105.526.297.717l6.042 6.042zm4.313-7.562l6.479-6.48c.005-.005.013-.008.019 0a.5.5 0 00.707-.708 1.013 1.013 0 00-1.432 0l-6.48 6.481a.5.5 0 00.707.707z" fill="#000"/></svg><svg fill="none" viewBox="0 0 25 25" id="instagram" xmlns="http://www.w3.org/2000/svg"><path d="M12.471 6.06a6.41 6.41 0 100 12.819 6.41 6.41 0 000-12.819zm0 10.572a4.164 4.164 0 110-8.328 4.164 4.164 0 010 8.328zm6.663-9.313a1.494 1.494 0 100-2.989 1.494 1.494 0 000 2.989z" fill="#000"/><path d="M24.3 4.305A6.383 6.383 0 0020.65.657a9.157 9.157 0 00-3.03-.582C16.285.017 15.863 0 12.478 0 9.093 0 8.659 0 7.335.075a9.085 9.085 0 00-3.027.582 6.376 6.376 0 00-3.65 3.648 9.128 9.128 0 00-.58 3.03C.018 8.67 0 9.092 0 12.478c0 3.385 0 3.816.078 5.142.02 1.037.216 2.06.58 3.032A6.39 6.39 0 004.31 24.3c.967.379 1.991.59 3.03.624 1.334.058 1.757.076 5.142.076 3.385 0 3.818 0 5.142-.076a9.17 9.17 0 003.03-.581 6.394 6.394 0 003.65-3.65c.364-.97.56-1.993.58-3.03.06-1.333.078-1.756.078-5.142s0-3.816-.077-5.143a9.124 9.124 0 00-.584-3.073zm-1.688 13.213a6.988 6.988 0 01-.431 2.34 4.14 4.14 0 01-2.373 2.371 6.912 6.912 0 01-2.315.431c-1.317.061-1.688.076-5.065.076-3.38 0-3.725 0-5.066-.076a6.875 6.875 0 01-2.314-.43 4.137 4.137 0 01-2.382-2.372 7.042 7.042 0 01-.432-2.314c-.06-1.317-.073-1.688-.073-5.065 0-3.378 0-3.723.073-5.066.01-.798.155-1.59.432-2.338a4.14 4.14 0 012.382-2.373 6.944 6.944 0 012.314-.432c1.318-.06 1.688-.076 5.066-.076s3.724 0 5.065.076c.79.01 1.574.156 2.315.432a4.146 4.146 0 012.373 2.373 7.04 7.04 0 01.43 2.313c.06 1.318.076 1.688.076 5.066 0 3.377 0 3.74-.06 5.065h-.015v-.001z" fill="#000"/></svg><svg fill="none" viewBox="0 0 221 221" id="play" xmlns="http://www.w3.org/2000/svg"><g filter="url(#efilter0_d)" fill="#F5DC28"><path d="M110.438 5C52.211 5 5 52.212 5 110.438c0 58.225 47.212 105.437 105.438 105.437 58.225 0 105.437-47.212 105.437-105.437C215.875 52.211 168.663 5 110.438 5zm0 192.988c-48.342 0-87.551-39.209-87.551-87.55 0-48.342 39.21-87.551 87.551-87.551s87.55 39.21 87.55 87.551-39.209 87.55-87.55 87.55z"/><path d="M159.249 107.402L89.562 56.801a3.743 3.743 0 00-5.954 3.036v101.201c0 3.083 3.483 4.825 5.954 3.036l69.687-50.6a3.746 3.746 0 001.144-4.742 3.734 3.734 0 00-1.144-1.33zm-60.626 31.537V81.937l39.233 28.501-39.233 28.501z"/></g><defs><filter id="efilter0_d" x="0" y="0" width="220.875" height="220.875" filterUnits="userSpaceOnUse" color-interpolation-filters="sRGB"><feFlood flood-opacity="0" result="BackgroundImageFix"/><feColorMatrix in="SourceAlpha" values="0 0 0 0 0 0 0 0 0 0 0 0 0 0 0 0 0 0 127 0" result="hardAlpha"/><feOffset/><feGaussianBlur stdDeviation="2.5"/><feColorMatrix values="0 0 0 0 1 0 0 0 0 1 0 0 0 0 1 0 0 0 1 0"/><feBlend in2="BackgroundImageFix" result="effect1_dropShadow"/><feBlend in="SourceGraphic" in2="effect1_dropShadow" result="shape"/></filter></defs></svg><svg fill="none" viewBox="0 0 28 21" id="slider-next" xmlns="http://www.w3.org/2000/svg"><path d="M28 4.573a4.807 4.807 0 01-1.073 3.033l-9.823 11.899a3.966 3.966 0 01-6.206 0l-9.822-11.9A4.9 4.9 0 01.469 2.45 4.106 4.106 0 014.18 0h19.645a4.106 4.106 0 013.71 2.45c.303.666.462 1.39.466 2.123z" fill="#000"/></svg><svg fill="none" viewBox="0 0 28 21" id="slider-prev" xmlns="http://www.w3.org/2000/svg"><path d="M0 16.428a4.806 4.806 0 011.073-3.033l9.823-11.9a3.966 3.966 0 016.206 0l9.822 11.9a4.9 4.9 0 01.607 5.156A4.106 4.106 0 0123.82 21H4.176a4.107 4.107 0 01-3.71-2.45A5.202 5.202 0 010 16.428zm13.999-11.34L4.666 16.335h18.455L14 5.09z" fill="#000"/></svg></svg>